<mxfile host="Electron" agent="Mozilla/5.0 (Windows NT 10.0; Win64; x64) AppleWebKit/537.36 (KHTML, like Gecko) draw.io/26.0.15 Chrome/132.0.6834.196 Electron/34.2.0 Safari/537.36" version="26.0.15">
  <diagram name="第 1 页" id="OUSfcp7HQERARZKGj-KC">
    <mxGraphModel dx="2128" dy="997" grid="0" gridSize="10" guides="1" tooltips="1" connect="1" arrows="1" fold="1" page="0" pageScale="1" pageWidth="827" pageHeight="1169" math="0" shadow="0">
      <root>
        <mxCell id="0" />
        <mxCell id="1" parent="0" />
        <mxCell id="MdpVlPcpCCqc1oUnqA30-2" value="&lt;font style=&quot;font-size: 14px;&quot;&gt;{&lt;br&gt;&lt;/font&gt;&lt;blockquote style=&quot;margin: 0 0 0 40px; border: none; padding: 0px;&quot;&gt;&lt;font style=&quot;font-size: 14px;&quot;&gt;&quot;instruct&quot;: &quot;请你给敖丙写一首诗：&quot;,&lt;br&gt;&lt;/font&gt;&lt;font style=&quot;font-size: 14px;&quot;&gt;&quot;input&quot;: &quot;碧海生龙子，云中舞雪霜。&quot;,&lt;br&gt;&lt;/font&gt;&lt;font style=&quot;font-size: 14px;&quot;&gt;&quot;label&quot;: &quot;恩仇难两忘，何处是家乡？&quot;&lt;/font&gt;&lt;/blockquote&gt;&lt;font style=&quot;font-size: 14px;&quot;&gt;}&lt;/font&gt;" style="text;whiteSpace=wrap;html=1;" vertex="1" parent="1">
          <mxGeometry x="283" y="168" width="294" height="107" as="geometry" />
        </mxCell>
        <mxCell id="MdpVlPcpCCqc1oUnqA30-4" value="pretrain" style="rounded=0;whiteSpace=wrap;html=1;" vertex="1" parent="1">
          <mxGeometry x="-2" y="372" width="50" height="30" as="geometry" />
        </mxCell>
        <mxCell id="MdpVlPcpCCqc1oUnqA30-5" value="SFT" style="rounded=0;whiteSpace=wrap;html=1;" vertex="1" parent="1">
          <mxGeometry x="836" y="378" width="50" height="30" as="geometry" />
        </mxCell>
        <mxCell id="MdpVlPcpCCqc1oUnqA30-6" value="&lt;span style=&quot;font-family: Consolas, &amp;quot;Courier New&amp;quot;, monospace; font-size: 14px; white-space: pre;&quot;&gt;&lt;font&gt;{&#39;attention_mask&#39;: tensor([[1, 1, 1, 1, 1, 1, 1, 1, 1, 1, 1, 1, 1, 1, 1, &lt;/font&gt;&lt;/span&gt;&lt;div&gt;&lt;font&gt;&lt;span style=&quot;font-family: Consolas, &amp;quot;Courier New&amp;quot;, monospace; font-size: 14px; white-space: pre;&quot;&gt;1, 1, 1, 1, 1, 1, 1, 1, 1,1, 1, 1, 1, 1, 1, 1]]),&lt;br&gt;&lt;/span&gt;&lt;span style=&quot;font-family: Consolas, &amp;quot;Courier New&amp;quot;, monospace; font-size: 14px; white-space: pre;&quot;&gt;         &lt;br&gt;&lt;/span&gt;&lt;span style=&quot;font-family: Consolas, &amp;quot;Courier New&amp;quot;, monospace; font-size: 14px; white-space: pre;&quot;&gt; &#39;input_ids&#39;: tensor([[112720,  89012, 113735, 106980,  61443, 108462, 100045,   5122, 102461,&lt;br&gt;&lt;/span&gt;&lt;span style=&quot;font-family: Consolas, &amp;quot;Courier New&amp;quot;, monospace; font-size: 14px; white-space: pre;&quot;&gt;          55135,  21287,  99465,  44729,   3837,  99718,  15946, 100066, 100167,&lt;br&gt;&lt;/span&gt;&lt;span style=&quot;font-family: Consolas, &amp;quot;Courier New&amp;quot;, monospace; font-size: 14px; white-space: pre;&quot;&gt;         105401,   1773, 100697, 100956,  99349,  77540,  99980,   3837, 114216,&lt;br&gt;&lt;/span&gt;&lt;span style=&quot;font-family: Consolas, &amp;quot;Courier New&amp;quot;, monospace; font-size: 14px; white-space: pre;&quot;&gt;          20412, 105686,  11319, 151643]]),&lt;br&gt;&lt;/span&gt;&lt;span style=&quot;font-family: Consolas, &amp;quot;Courier New&amp;quot;, monospace; font-size: 14px; white-space: pre;&quot;&gt; &#39;labels&#39;: tensor([[  &lt;font style=&quot;color: rgb(255, 0, 0);&quot;&gt;-100,   -100,   -100,   -100,   -100,   -100,   -100,   -100,   -100,&lt;br&gt;&lt;/font&gt;&lt;/span&gt;&lt;span style=&quot;font-family: Consolas, &amp;quot;Courier New&amp;quot;, monospace; font-size: 14px; white-space: pre;&quot;&gt;&lt;font style=&quot;color: rgb(255, 0, 0);&quot;&gt;           -100,   -100,   -100,   -100,   -100,   -100,   -100,   -100,   -100,&lt;br&gt;&lt;/font&gt;&lt;/span&gt;&lt;span style=&quot;font-family: Consolas, &amp;quot;Courier New&amp;quot;, monospace; font-size: 14px; white-space: pre;&quot;&gt;&lt;font style=&quot;color: rgb(255, 0, 0);&quot;&gt;           -100,   -100,&lt;/font&gt; 100697, 100956,  99349,  77540,  99980,   3837, 114216,&lt;br&gt;&lt;/span&gt;&lt;span style=&quot;font-family: Consolas, &amp;quot;Courier New&amp;quot;, monospace; font-size: 14px; white-space: pre;&quot;&gt;          20412, 105686,  11319, 151643]])}&lt;/span&gt;&lt;/font&gt;&lt;/div&gt;" style="text;whiteSpace=wrap;html=1;" vertex="1" parent="1">
          <mxGeometry x="493" y="458" width="790" height="200" as="geometry" />
        </mxCell>
        <mxCell id="MdpVlPcpCCqc1oUnqA30-7" value="&lt;span style=&quot;font-family: Consolas, &amp;quot;Courier New&amp;quot;, monospace; font-size: 14px; white-space: pre;&quot;&gt;&lt;font&gt;{&#39;attention_mask&#39;: tensor([[1, 1, 1, 1, 1, 1, 1, 1, 1, 1, 1, 1, 1, 1, 1, &lt;/font&gt;&lt;/span&gt;&lt;div&gt;&lt;font&gt;&lt;span style=&quot;font-family: Consolas, &amp;quot;Courier New&amp;quot;, monospace; font-size: 14px; white-space: pre;&quot;&gt;1, 1, 1, 1, 1, 1, 1, 1, 1,1, 1, 1, 1, 1, 1, 1]]),&lt;br&gt;&lt;/span&gt;&lt;span style=&quot;font-family: Consolas, &amp;quot;Courier New&amp;quot;, monospace; font-size: 14px; white-space: pre;&quot;&gt;         &lt;br&gt;&lt;/span&gt;&lt;span style=&quot;font-family: Consolas, &amp;quot;Courier New&amp;quot;, monospace; font-size: 14px; white-space: pre;&quot;&gt; &#39;input_ids&#39;: tensor([[112720,  89012, 113735, 106980,  61443, 108462, 100045,   5122, 102461,&lt;br&gt;&lt;/span&gt;&lt;span style=&quot;font-family: Consolas, &amp;quot;Courier New&amp;quot;, monospace; font-size: 14px; white-space: pre;&quot;&gt;          55135,  21287,  99465,  44729,   3837,  99718,  15946, 100066, 100167,&lt;br&gt;&lt;/span&gt;&lt;span style=&quot;font-family: Consolas, &amp;quot;Courier New&amp;quot;, monospace; font-size: 14px; white-space: pre;&quot;&gt;         105401,   1773, 100697, 100956,  99349,  77540,  99980,   3837, 114216,&lt;br&gt;&lt;/span&gt;&lt;span style=&quot;font-family: Consolas, &amp;quot;Courier New&amp;quot;, monospace; font-size: 14px; white-space: pre;&quot;&gt;          20412, 105686,  11319, 151643]]),&lt;br&gt;&lt;/span&gt;&lt;span style=&quot;font-family: Consolas, &amp;quot;Courier New&amp;quot;, monospace; font-size: 14px; white-space: pre;&quot;&gt; &#39;labels&#39;: &lt;/span&gt;&lt;span style=&quot;font-family: Consolas, &amp;quot;Courier New&amp;quot;, monospace; font-size: 14px; white-space: pre;&quot;&gt;tensor([[112720,  89012, 113735, 106980,  61443, 108462, 100045,   5122, 102461,&lt;br&gt;&lt;/span&gt;&lt;span style=&quot;font-family: Consolas, &amp;quot;Courier New&amp;quot;, monospace; font-size: 14px; white-space: pre;&quot;&gt;          55135,  21287,  99465,  44729,   3837,  99718,  15946, 100066, 100167,&lt;br&gt;&lt;/span&gt;&lt;span style=&quot;font-family: Consolas, &amp;quot;Courier New&amp;quot;, monospace; font-size: 14px; white-space: pre;&quot;&gt;         105401,   1773, 100697, 100956,  99349,  77540,  99980,   3837, 114216,&lt;br&gt;&lt;/span&gt;&lt;span style=&quot;font-family: Consolas, &amp;quot;Courier New&amp;quot;, monospace; font-size: 14px; white-space: pre;&quot;&gt;          20412, 105686,  11319, 151643]])&lt;/span&gt;&lt;span style=&quot;font-family: Consolas, &amp;quot;Courier New&amp;quot;, monospace; font-size: 14px; white-space: pre;&quot;&gt;}&lt;/span&gt;&lt;/font&gt;&lt;/div&gt;" style="text;whiteSpace=wrap;html=1;" vertex="1" parent="1">
          <mxGeometry x="-251" y="460" width="790" height="200" as="geometry" />
        </mxCell>
        <mxCell id="MdpVlPcpCCqc1oUnqA30-8" value="&lt;div style=&quot;color: #d4d4d4;background-color: #1e1e1e;font-family: Consolas, &#39;Courier New&#39;, monospace;font-weight: normal;font-size: 14px;line-height: 19px;white-space: pre;&quot;&gt;&lt;br&gt;&lt;/div&gt;" style="text;whiteSpace=wrap;html=1;" vertex="1" parent="1">
          <mxGeometry x="157" y="298" width="560" height="40" as="geometry" />
        </mxCell>
        <mxCell id="MdpVlPcpCCqc1oUnqA30-9" value="&lt;font style=&quot;font-size: 14px;&quot;&gt;item[&quot;instruct&quot;] + item[&quot;input&quot;] + item[&quot;label&quot;] + tokenizer.eos_token&lt;/font&gt;" style="text;whiteSpace=wrap;html=1;" vertex="1" parent="1">
          <mxGeometry x="223" y="298" width="588" height="40" as="geometry" />
        </mxCell>
      </root>
    </mxGraphModel>
  </diagram>
</mxfile>
